# xmcd
#
# Track frame offsets:
# 150
# 16758
# 28413
# 41324
# 55368
# 69483
# 84403
# 97361
# 113731
# 127790
# 140647
# 157571
# 171158
# 187684
# 199206
# 214016
#
# Disc length: 3016 seconds
#
#
# Revision: 0
# Processed by: cddbd v1.5.2PL0 Copyright (c) Steve Scherf et al.
# Submitted via: FreeRIP 2.951 
#
DISCID=d10bc610
DTITLE=Michel Teló - Balada Sertaneja
DYEAR=2009
DGENRE=Sertanejo
TTITLE0=Larga de bobeira
TTITLE1=Ei, Psiu!! Beijo me liga!! com João Bosco e Vinícius
TTITLE2=Faz de difícil
TTITLE3=A cobrar pro seu coração (Orelhão)
TTITLE4=Amanhã sei lá
TTITLE5=Ponto Certo
TTITLE6=Balada sertaneja
TTITLE7=Cai na real - Tire seus olhos do meu
TTITLE8=Gotas de água doce
TTITLE9=Explodiu!!!
TTITLE10=Horizonte
TTITLE11=Você vai pirar
TTITLE12=Seu coração não tem dó do meu - Eu hoje entrego os pontos
TTITLE13=Cilada
TTITLE14=Pai, mãe
TTITLE15=Ei, Psiu!! Beijo me liga!! (Faixa Bônus)
EXTD=
EXTT0=
EXTT1=
EXTT2=
EXTT3=
EXTT4=
EXTT5=
EXTT6=
EXTT7=
EXTT8=
EXTT9=
EXTT10=
EXTT11=
EXTT12=
EXTT13=
EXTT14=
EXTT15=
PLAYORDER=
